# xmcd
#
# Track frame offsets: 
#        150
#        31507
#        72765
#        100957
#        121687
#        141147
#        156922
#        176110
#
# Disc length: 2551 seconds
#
# Revision: 3
# Processed by: cddbd v1.5.2PL0 Copyright (c) Steve Scherf et al.
# Submitted via: ExactAudioCopy v1.3
#
DISCID=6109f508
DTITLE=The S.O.S. Band - On The Rise
DYEAR=1983
DGENRE=Funk
TTITLE0=Tell Me If You Still Care
TTITLE1=Just Be Good To Me
TTITLE2=For Your Love
TTITLE3=I'm Not Runnin'
TTITLE4=If You Want My Love
TTITLE5=On The Rise
TTITLE6=Who's Making Love
TTITLE7=Steppin' The Stones
EXTD=
EXTT0=
EXTT1=
EXTT2=
EXTT3=
EXTT4=
EXTT5=
EXTT6=
EXTT7=
PLAYORDER=
